<!DOCTYPE svg PUBLIC "-//W3C//DTD SVG 1.1//EN" "http://www.w3.org/Graphics/SVG/1.1/DTD/svg11.dtd">
<svg xmlns="http://www.w3.org/2000/svg" xmlns:xlink="http://www.w3.org/1999/xlink" xmlns:xml="http://www.w3.org/XML/1998/namespace" version="1.1" x="0" y="0" width="300" height="300" overflow="inherit" preserveAspectRatio="xMidYMid" font-size="none" xml:space="default" xml="http://www.w3.org/XML/1998/namespace" ls="http://www.smart-software.at" isIconSupported="true" isSloganSupported="true" isSloganRequired="false" conditionExpression="">
  <rect x="0" y="0" width="300" height="300" id="background" xml:space="default" style="fill:#FFFFFF;" />
  <g xml:space="default" dynamic="true" exec="@Code.DisableStrokeAlternateStyle(p);">
    <title xml:space="default">Layer 1</title>
    <g id="text1" xml:space="default">
      <path d="M63.0844 185.1373 L58.3003 173.8026 C57.82598 173.6391 57.39254 173.4428 57 173.2138 L57 173.2138 L57 172.5759 L62.15211 172.5759 L62.15211 173.1893 C61.93949 173.3038 61.72277 173.4142 61.50197 173.5205 L61.50197 173.5205 C61.28116 173.6268 61.03173 173.7209 60.75368 173.8026 L60.75368 173.8026 L63.58888 181.1873 L64.07764 182.7084 L64.12671 182.7084 L64.49318 181.1628 L67.10796 173.8026 C66.84626 173.7372 66.60501 173.6554 66.38421 173.5573 L66.38421 173.5573 C66.16341 173.4592 65.95486 173.3447 65.75859 173.2138 L65.75859 173.2138 L65.75859 172.5759 L69.92935 172.5759 L69.92935 173.2138 C69.76579 173.3283 69.56543 173.4346 69.32827 173.5328 L69.32827 173.5328 C69.09111 173.6309 68.82533 173.7209 68.53092 173.8026 L68.53092 173.8026 L64.18842 184.8429 L63.0844 185.1373 M70.24264 178.7094 C70.24264 177.679 70.37758 176.7672 70.64745 175.9739 L70.64745 175.9739 C70.91732 175.1806 71.30577 174.51 71.81281 173.9621 L71.81281 173.9621 C72.31984 173.4142 72.9291 172.9971 73.64058 172.7109 L73.64058 172.7109 C74.35207 172.4247 75.14124 172.2815 76.0081 172.2815 L76.0081 172.2815 C77.02216 172.2815 77.89721 172.4369 78.63322 172.7477 L78.63322 172.7477 C79.36924 173.0584 79.97032 173.496 80.43646 174.0602 L80.43646 174.0602 C80.90261 174.6245 81.24609 175.2992 81.46689 176.0843 L81.46689 176.0843 C81.68769 176.8694 81.7981 177.7444 81.7981 178.7094 L81.7981 178.7094 C81.7981 180.7703 81.2747 182.3568 80.22793 183.469 L80.22793 183.469 C79.18114 184.5812 77.77454 185.1373 76.0081 185.1373 L76.0081 185.1373 C75.02675 185.1373 74.17624 184.986 73.45658 184.6834 L73.45658 184.6834 C72.73692 184.3808 72.13992 183.9474 71.6656 183.3831 L71.6656 183.3831 C71.19128 182.8188 70.83554 182.1401 70.59838 181.3468 L70.59838 181.3468 C70.36122 180.5535 70.24264 179.6744 70.24264 178.7094 C70.24264 178.7094 70.24264 178.7094 70.24264 178.7094 L70.24264 178.7094 L70.24264 178.7094 M72.59789 178.7094 C72.59789 179.4454 72.6674 180.1405 72.80643 180.7948 L72.80643 180.7948 C72.94546 181.449 73.16626 182.0174 73.46884 182.4999 L73.46884 182.4999 C73.77143 182.9824 74.16806 183.3627 74.65874 183.6407 L74.65874 183.6407 C75.14941 183.9188 75.73823 184.0578 76.42518 184.0578 L76.42518 184.0578 C77.3084 184.0578 78.03214 183.6244 78.59643 182.7575 L78.59643 182.7575 C79.16071 181.8906 79.44284 180.5413 79.44284 178.7094 L79.44284 178.7094 C79.44284 177.957 79.37333 177.2578 79.23431 176.6118 L79.23431 176.6118 C79.09528 175.9657 78.87856 175.4014 78.58416 174.9189 L78.58416 174.9189 C78.28975 174.4364 77.91357 174.0562 77.4556 173.7781 L77.4556 173.7781 C76.99763 173.5 76.44971 173.361 75.81183 173.361 L75.81183 173.361 C74.84683 173.361 74.06992 173.7945 73.48111 174.6613 L73.48111 174.6613 C72.8923 175.5282 72.59789 176.8775 72.59789 178.7094 C72.59789 178.7094 72.59789 178.7094 72.59789 178.7094 L72.59789 178.7094 L72.59789 178.7094 M89.26186 184.8429 L83.81534 184.8429 L83.81534 184.2295 C84.35508 183.9678 84.89483 183.7716 85.43457 183.6407 L85.43457 183.6407 L85.43457 168.1108 L83.57 167.9145 L83.57 167.2766 C83.99525 167.0804 84.52682 166.9086 85.1647 166.7614 L85.1647 166.7614 C85.80258 166.6142 86.4241 166.4915 87.02927 166.3934 L87.02927 166.3934 L87.64262 166.3934 L87.64262 183.6407 C88.18237 183.7716 88.72211 183.9678 89.26186 184.2295 C89.26186 184.2295 89.26186 184.2295 89.26186 184.8429 L89.26186 184.2295 L89.26186 184.8429 M96.64119 184.8429 L91.19466 184.8429 L91.19466 184.2295 C91.73441 183.9678 92.27416 183.7716 92.8139 183.6407 L92.8139 183.6407 L92.8139 168.1108 L90.94933 167.9145 L90.94933 167.2766 C91.37458 167.0804 91.90615 166.9086 92.54403 166.7614 L92.54403 166.7614 C93.18191 166.6142 93.80344 166.4915 94.40861 166.3934 L94.40861 166.3934 L95.02195 166.3934 L95.02195 183.6407 C95.5617 183.7716 96.10144 183.9678 96.64119 184.2295 C96.64119 184.2295 96.64119 184.2295 96.64119 184.8429 L96.64119 184.2295 L96.64119 184.8429 M104.9283 172.5759 L109.6633 172.5759 L109.6633 173.2138 C109.3525 173.3447 109.0459 173.4592 108.7433 173.5573 L108.7433 173.5573 C108.4407 173.6554 108.1259 173.7372 107.7987 173.8026 L107.7987 173.8026 C107.5534 174.1298 107.2713 174.4814 106.9523 174.8576 L106.9523 174.8576 C106.6334 175.2338 106.3103 175.61 105.9832 175.9861 L105.9832 175.9861 C105.6561 176.3623 105.3413 176.714 105.0387 177.0411 L105.0387 177.0411 C104.7361 177.3682 104.4785 177.6381 104.2659 177.8507 L104.2659 177.8507 C104.5112 178.1778 104.8097 178.5745 105.1613 179.0406 L105.1613 179.0406 C105.513 179.5068 105.8933 180.0015 106.3022 180.5249 L106.3022 180.5249 C106.7111 181.0483 107.1322 181.5799 107.5657 182.1196 L107.5657 182.1196 C107.9991 182.6594 108.4284 183.1664 108.8537 183.6407 L108.8537 183.6407 L110.2276 184.2295 L110.2276 184.8429 L107.1854 184.8429 L106.523 184.2541 C105.6561 183.1746 104.9364 182.2137 104.364 181.3713 L104.364 181.3713 C103.7915 180.529 103.2681 179.7398 102.7938 179.0038 L102.7938 179.0038 L101.9842 178.7585 L101.9842 183.6407 C102.5239 183.7389 103.0555 183.9351 103.5789 184.2295 L103.5789 184.2295 L103.5789 184.8429 L98.15692 184.8429 L98.15692 184.2295 C98.69666 183.9678 99.23641 183.7716 99.77616 183.6407 L99.77616 183.6407 L99.77616 168.1108 L97.91158 167.9145 L97.91158 167.2766 C98.36955 167.064 98.91747 166.8923 99.55535 166.7614 L99.55535 166.7614 C100.1932 166.6306 100.7984 166.5079 101.3709 166.3934 L101.3709 166.3934 L101.9842 166.3934 L101.9842 178.1206 L102.6221 178.1206 C102.8838 177.8262 103.17 177.4991 103.4808 177.1393 L103.4808 177.1393 C103.7915 176.7794 104.1023 176.4073 104.4131 176.0229 L104.4131 176.0229 C104.7238 175.6386 105.0264 175.2583 105.3208 174.8821 L105.3208 174.8821 C105.6152 174.5059 105.8851 174.1461 106.1304 173.8026 L106.1304 173.8026 C105.7215 173.6881 105.3208 173.4919 104.9283 173.2138 C104.9283 173.2138 104.9283 173.2138 104.9283 172.5759 L104.9283 173.2138 L104.9283 172.5759 M110.9368 178.7094 C110.9368 177.679 111.0717 176.7672 111.3416 175.9739 L111.3416 175.9739 C111.6115 175.1806 111.9999 174.51 112.5069 173.9621 L112.5069 173.9621 C113.014 173.4142 113.6232 172.9971 114.3347 172.7109 L114.3347 172.7109 C115.0462 172.4247 115.8354 172.2815 116.7022 172.2815 L116.7022 172.2815 C117.7163 172.2815 118.5913 172.4369 119.3274 172.7477 L119.3274 172.7477 C120.0634 173.0584 120.6645 173.496 121.1306 174.0602 L121.1306 174.0602 C121.5967 174.6245 121.9402 175.2992 122.161 176.0843 L122.161 176.0843 C122.3818 176.8694 122.4922 177.7444 122.4922 178.7094 L122.4922 178.7094 C122.4922 180.7703 121.9688 182.3568 120.9221 183.469 L120.9221 183.469 C119.8753 184.5812 118.4687 185.1373 116.7022 185.1373 L116.7022 185.1373 C115.7209 185.1373 114.8704 184.986 114.1507 184.6834 L114.1507 184.6834 C113.431 184.3808 112.8341 183.9474 112.3597 183.3831 L112.3597 183.3831 C111.8854 182.8188 111.5297 182.1401 111.2925 181.3468 L111.2925 181.3468 C111.0554 180.5535 110.9368 179.6744 110.9368 178.7094 C110.9368 178.7094 110.9368 178.7094 110.9368 178.7094 L110.9368 178.7094 L110.9368 178.7094 M113.292 178.7094 C113.292 179.4454 113.3615 180.1405 113.5006 180.7948 L113.5006 180.7948 C113.6396 181.449 113.8604 182.0174 114.163 182.4999 L114.163 182.4999 C114.4656 182.9824 114.8622 183.3627 115.3529 183.6407 L115.3529 183.6407 C115.8436 183.9188 116.4324 184.0578 117.1193 184.0578 L117.1193 184.0578 C118.0025 184.0578 118.7263 183.6244 119.2906 182.7575 L119.2906 182.7575 C119.8548 181.8906 120.137 180.5413 120.137 178.7094 L120.137 178.7094 C120.137 177.957 120.0675 177.2578 119.9284 176.6118 L119.9284 176.6118 C119.7894 175.9657 119.5727 175.4014 119.2783 174.9189 L119.2783 174.9189 C118.9839 174.4364 118.6077 174.0562 118.1497 173.7781 L118.1497 173.7781 C117.6918 173.5 117.1438 173.361 116.506 173.361 L116.506 173.361 C115.541 173.361 114.7641 173.7945 114.1752 174.6613 L114.1752 174.6613 C113.5864 175.5282 113.292 176.8775 113.292 178.7094 C113.292 178.7094 113.292 178.7094 113.292 178.7094 L113.292 178.7094 L113.292 178.7094 M136.9481 184.8429 L131.6979 184.8429 L131.6979 184.2295 C131.8615 184.1314 132.0618 184.0292 132.299 183.9229 L132.299 183.9229 C132.5361 183.8165 132.8183 183.7225 133.1454 183.6407 L133.1454 183.6407 L133.1454 177.9734 C133.1454 177.3192 133.1168 176.7303 133.0595 176.207 L133.0595 176.207 C133.0023 175.6836 132.896 175.246 132.7406 174.8944 L132.7406 174.8944 C132.5852 174.5427 132.3603 174.2729 132.0659 174.0848 L132.0659 174.0848 C131.7715 173.8967 131.3871 173.8026 130.9128 173.8026 L130.9128 173.8026 C130.553 173.8026 130.2218 173.8762 129.9192 174.0234 L129.9192 174.0234 C129.6166 174.1706 129.3467 174.3669 129.1096 174.6123 L129.1096 174.6123 C128.8724 174.8576 128.668 175.1357 128.4962 175.4464 L128.4962 175.4464 C128.3245 175.7572 128.1895 176.0843 128.0914 176.4278 L128.0914 176.4278 L128.0914 183.6407 C128.3531 183.7225 128.6025 183.8084 128.8397 183.8983 L128.8397 183.8983 C129.0769 183.9883 129.3099 184.0987 129.5389 184.2295 L129.5389 184.2295 L129.5389 184.8429 L124.2641 184.8429 L124.2641 184.2295 C124.4931 184.1151 124.7466 184.0087 125.0247 183.9106 L125.0247 183.9106 C125.3027 183.8125 125.589 183.7225 125.8834 183.6407 L125.8834 183.6407 L125.8834 173.9989 L124.2641 173.8026 L124.2641 173.1647 C124.7875 172.9358 125.3232 172.7518 125.8711 172.6127 L125.8711 172.6127 C126.419 172.4737 126.9547 172.3633 127.4781 172.2815 L127.4781 172.2815 L128.0914 172.2815 L128.0914 175.0539 L128.116 175.0539 C128.3776 174.2851 128.8233 173.6309 129.453 173.0912 L129.453 173.0912 C130.0827 172.5514 130.8637 172.2815 131.796 172.2815 L131.796 172.2815 C132.1886 172.2815 132.5648 172.3224 132.9246 172.4042 L132.9246 172.4042 C133.2844 172.486 133.6197 172.6373 133.9305 172.8581 L133.9305 172.8581 C134.2412 173.0789 134.5029 173.3856 134.7156 173.7781 L134.7156 173.7781 C134.9282 174.1706 135.0836 174.6777 135.1817 175.2992 L135.1817 175.2992 C135.4761 174.3996 135.9504 173.6718 136.6047 173.1157 L136.6047 173.1157 C137.2589 172.5596 138.0767 172.2815 139.0581 172.2815 L139.0581 172.2815 C139.6632 172.2815 140.1907 172.3592 140.6405 172.5146 L140.6405 172.5146 C141.0903 172.67 141.4624 172.944 141.7568 173.3365 L141.7568 173.3365 C142.0512 173.729 142.2679 174.2606 142.4069 174.9312 L142.4069 174.9312 C142.5459 175.6018 142.6155 176.4523 142.6155 177.4827 L142.6155 177.4827 L142.6155 183.6407 C143.1716 183.7389 143.7113 183.9351 144.2347 184.2295 L144.2347 184.2295 L144.2347 184.8429 L138.9599 184.8429 L138.9599 184.2295 C139.4506 183.9678 139.9331 183.7716 140.4074 183.6407 L140.4074 183.6407 L140.4074 177.5318 C140.4074 176.943 140.3788 176.4196 140.3215 175.9616 L140.3215 175.9616 C140.2643 175.5036 140.1539 175.1152 139.9903 174.7963 L139.9903 174.7963 C139.8268 174.4773 139.5978 174.232 139.3034 174.0602 L139.3034 174.0602 C139.009 173.8885 138.6164 173.8026 138.1258 173.8026 L138.1258 173.8026 C137.3407 173.8026 136.7314 174.0725 136.298 174.6123 L136.298 174.6123 C135.8646 175.152 135.5497 175.8389 135.3534 176.6731 L135.3534 176.6731 L135.3534 183.6407 C135.9259 183.8043 136.4575 184.0005 136.9481 184.2295 C136.9481 184.2295 136.9481 184.2295 136.9481 184.8429 L136.9481 184.2295 L136.9481 184.8429 M158.1158 184.8429 L152.8655 184.8429 L152.8655 184.2295 C153.0291 184.1314 153.2295 184.0292 153.4666 183.9229 L153.4666 183.9229 C153.7038 183.8165 153.9859 183.7225 154.313 183.6407 L154.313 183.6407 L154.313 177.9734 C154.313 177.3192 154.2844 176.7303 154.2272 176.207 L154.2272 176.207 C154.1699 175.6836 154.0636 175.246 153.9082 174.8944 L153.9082 174.8944 C153.7529 174.5427 153.528 174.2729 153.2336 174.0848 L153.2336 174.0848 C152.9391 173.8967 152.5548 173.8026 152.0805 173.8026 L152.0805 173.8026 C151.7206 173.8026 151.3894 173.8762 151.0868 174.0234 L151.0868 174.0234 C150.7843 174.1706 150.5144 174.3669 150.2772 174.6123 L150.2772 174.6123 C150.0401 174.8576 149.8356 175.1357 149.6639 175.4464 L149.6639 175.4464 C149.4921 175.7572 149.3572 176.0843 149.2591 176.4278 L149.2591 176.4278 L149.2591 183.6407 C149.5208 183.7225 149.7702 183.8084 150.0074 183.8983 L150.0074 183.8983 C150.2445 183.9883 150.4776 184.0987 150.7066 184.2295 L150.7066 184.2295 L150.7066 184.8429 L145.4318 184.8429 L145.4318 184.2295 C145.6608 184.1151 145.9143 184.0087 146.1923 183.9106 L146.1923 183.9106 C146.4704 183.8125 146.7566 183.7225 147.051 183.6407 L147.051 183.6407 L147.051 173.9989 L145.4318 173.8026 L145.4318 173.1647 C145.9552 172.9358 146.4908 172.7518 147.0388 172.6127 L147.0388 172.6127 C147.5867 172.4737 148.1223 172.3633 148.6457 172.2815 L148.6457 172.2815 L149.2591 172.2815 L149.2591 175.0539 L149.2836 175.0539 C149.5453 174.2851 149.991 173.6309 150.6207 173.0912 L150.6207 173.0912 C151.2504 172.5514 152.0314 172.2815 152.9637 172.2815 L152.9637 172.2815 C153.3562 172.2815 153.7324 172.3224 154.0922 172.4042 L154.0922 172.4042 C154.4521 172.486 154.7874 172.6373 155.0981 172.8581 L155.0981 172.8581 C155.4089 173.0789 155.6706 173.3856 155.8832 173.7781 L155.8832 173.7781 C156.0958 174.1706 156.2512 174.6777 156.3494 175.2992 L156.3494 175.2992 C156.6438 174.3996 157.1181 173.6718 157.7723 173.1157 L157.7723 173.1157 C158.4266 172.5596 159.2444 172.2815 160.2257 172.2815 L160.2257 172.2815 C160.8309 172.2815 161.3584 172.3592 161.8081 172.5146 L161.8081 172.5146 C162.2579 172.67 162.63 172.944 162.9244 173.3365 L162.9244 173.3365 C163.2188 173.729 163.4356 174.2606 163.5746 174.9312 L163.5746 174.9312 C163.7136 175.6018 163.7831 176.4523 163.7831 177.4827 L163.7831 177.4827 L163.7831 183.6407 C164.3392 183.7389 164.879 183.9351 165.4024 184.2295 L165.4024 184.2295 L165.4024 184.8429 L160.1276 184.8429 L160.1276 184.2295 C160.6183 183.9678 161.1008 183.7716 161.5751 183.6407 L161.5751 183.6407 L161.5751 177.5318 C161.5751 176.943 161.5465 176.4196 161.4892 175.9616 L161.4892 175.9616 C161.432 175.5036 161.3215 175.1152 161.158 174.7963 L161.158 174.7963 C160.9944 174.4773 160.7655 174.232 160.471 174.0602 L160.471 174.0602 C160.1766 173.8885 159.7841 173.8026 159.2934 173.8026 L159.2934 173.8026 C158.5083 173.8026 157.8991 174.0725 157.4657 174.6123 L157.4657 174.6123 C157.0322 175.152 156.7174 175.8389 156.5211 176.6731 L156.5211 176.6731 L156.5211 183.6407 C157.0936 183.8043 157.6251 184.0005 158.1158 184.2295 C158.1158 184.2295 158.1158 184.2295 158.1158 184.8429 L158.1158 184.2295 L158.1158 184.8429 M176.781 183.1255 C176.6502 183.4036 176.4457 183.6653 176.1676 183.9106 L176.1676 183.9106 C175.8896 184.1559 175.5707 184.3686 175.2108 184.5485 L175.2108 184.5485 C174.851 184.7284 174.4585 184.8715 174.0332 184.9778 L174.0332 184.9778 C173.608 185.0841 173.1745 185.1373 172.7329 185.1373 L172.7329 185.1373 C171.7679 185.1373 170.9174 184.986 170.1814 184.6834 L170.1814 184.6834 C169.4454 184.3808 168.832 183.9474 168.3413 183.3831 L168.3413 183.3831 C167.8507 182.8188 167.4786 182.1441 167.2251 181.3591 L167.2251 181.3591 C166.9715 180.574 166.8448 179.6908 166.8448 178.7094 L166.8448 178.7094 C166.8448 176.6159 167.3273 175.0211 168.2923 173.9253 L168.2923 173.9253 C169.2573 172.8295 170.623 172.2815 172.3894 172.2815 L172.3894 172.2815 C172.9619 172.2815 173.5262 172.3592 174.0823 172.5146 L174.0823 172.5146 C174.6384 172.67 175.1331 172.9276 175.5666 173.2874 L175.5666 173.2874 C176 173.6473 176.3517 174.1257 176.6215 174.7227 L176.6215 174.7227 C176.8914 175.3196 177.0263 176.0598 177.0263 176.943 L177.0263 176.943 C177.0263 177.221 177.0141 177.5032 176.9895 177.7894 L176.9895 177.7894 C176.965 178.0756 176.92 178.3823 176.8546 178.7094 L176.8546 178.7094 L169.2 178.7094 C169.2 179.3964 169.2859 180.0383 169.4576 180.6353 L169.4576 180.6353 C169.6294 181.2323 169.887 181.7516 170.2305 182.1932 L170.2305 182.1932 C170.5739 182.6348 171.0074 182.9824 171.5307 183.2359 L171.5307 183.2359 C172.0541 183.4894 172.6675 183.6162 173.3708 183.6162 L173.3708 183.6162 C173.9433 183.6162 174.5239 183.5344 175.1127 183.3708 L175.1127 183.3708 C175.7015 183.2073 176.1431 182.9947 176.4375 182.733 C176.4375 182.733 176.4375 182.733 176.781 183.1255 L176.4375 182.733 L176.781 183.1255 M172.2913 173.361 C171.359 173.361 170.6475 173.6759 170.1568 174.3056 L170.1568 174.3056 C169.6662 174.9353 169.3718 176.0434 169.2736 177.6299 L169.2736 177.6299 L174.6711 177.6299 C174.6874 177.4827 174.6997 177.3396 174.7079 177.2006 L174.7079 177.2006 C174.7161 177.0616 174.7202 176.9266 174.7202 176.7958 L174.7202 176.7958 C174.7202 175.749 174.5239 174.9148 174.1313 174.2933 L174.1313 174.2933 C173.7388 173.6718 173.1255 173.361 172.2913 173.361 C172.2913 173.361 172.2913 173.361 172.2913 173.361 L172.2913 173.361 L172.2913 173.361 M192.3338 184.8429 L187.059 184.8429 L187.059 184.2295 C187.5006 184.0005 187.9831 183.8043 188.5065 183.6407 L188.5065 183.6407 L188.5065 177.8262 C188.5065 176.5831 188.3266 175.6018 187.9667 174.8821 L187.9667 174.8821 C187.6069 174.1625 186.9527 173.8026 186.004 173.8026 L186.004 173.8026 C185.5951 173.8026 185.2148 173.8762 184.8632 174.0234 L184.8632 174.0234 C184.5115 174.1706 184.2008 174.371 183.9309 174.6245 L183.9309 174.6245 C183.661 174.878 183.4279 175.1643 183.2317 175.4832 L183.2317 175.4832 C183.0354 175.8022 182.88 176.1334 182.7655 176.4768 L182.7655 176.4768 L182.7655 183.6407 C183.2726 183.7389 183.7632 183.9351 184.2376 184.2295 L184.2376 184.2295 L184.2376 184.8429 L178.9383 184.8429 L178.9383 184.2295 C179.3472 184.0169 179.8869 183.8206 180.5575 183.6407 L180.5575 183.6407 L180.5575 173.9989 L178.9383 173.8026 L178.9383 173.1647 C179.3635 172.9848 179.8542 172.8213 180.4103 172.6741 L180.4103 172.6741 C180.9664 172.5269 181.547 172.396 182.1522 172.2815 L182.1522 172.2815 L182.7655 172.2815 L182.7655 175.0293 L182.7901 175.0293 C183.1335 174.277 183.6283 173.6309 184.2744 173.0912 L184.2744 173.0912 C184.9204 172.5514 185.7014 172.2815 186.6174 172.2815 L186.6174 172.2815 C187.2716 172.2815 187.8563 172.3592 188.3715 172.5146 L188.3715 172.5146 C188.8867 172.67 189.3161 172.944 189.6596 173.3365 L189.6596 173.3365 C190.003 173.729 190.2647 174.2565 190.4446 174.9189 L190.4446 174.9189 C190.6246 175.5813 190.7145 176.4196 190.7145 177.4337 L190.7145 177.4337 L190.7145 183.6407 C191.3688 183.7552 191.9085 183.9515 192.3338 184.2295 C192.3338 184.2295 192.3338 184.2295 192.3338 184.8429 L192.3338 184.2295 L192.3338 184.8429" id="text1_subtext_0" xml:space="default" style="fill:#4E4E56;" />
      <path d="M193.787 173.8026 C193.5417 173.7372 193.3168 173.6554 193.1124 173.5573 L193.1124 173.5573 C192.9079 173.4592 192.6994 173.3447 192.4868 173.2138 L192.4868 173.2138 L192.4868 172.5759 L197.6389 172.5759 L197.6389 173.1893 C197.2954 173.4183 196.8293 173.6227 196.2404 173.8026 L196.2404 173.8026 L199.3597 181.0647 L199.8228 182.5858 L199.8715 182.5858 L200.2395 181.0401 L202.5702 173.8026 C202.0795 173.7045 201.6297 173.5082 201.2208 173.2138 L201.2208 173.2138 L201.2208 172.5759 L205.4161 172.5759 L205.4161 173.2138 C205.0726 173.4428 204.6065 173.6391 204.0177 173.8026 L204.0177 173.8026 L200.1904 184.8429 C199.7979 185.8897 199.4258 186.7361 199.0741 187.3821 L199.0741 187.3821 C198.7225 188.0282 198.3708 188.5393 198.0191 188.9155 L198.0191 188.9155 C197.6675 189.2917 197.3077 189.5657 196.9397 189.7374 L196.9397 189.7374 C196.5717 189.9091 196.175 190.0359 195.7498 190.1177 L195.7498 190.1177 C195.5699 189.8069 195.4104 189.4634 195.2713 189.0872 L195.2713 189.0872 C195.1323 188.7111 195.0137 188.3512 194.9156 188.0078 L194.9156 188.0078 L195.2346 187.4189 L197.7861 187.4189 C197.8842 187.2881 197.9701 187.1613 198.0437 187.0387 L198.0437 187.0387 C198.1173 186.916 198.195 186.7647 198.2767 186.5848 L198.2767 186.5848 C198.3585 186.4049 198.4485 186.1759 198.5466 185.8978 L198.5466 185.8978 C198.6448 185.6198 198.7592 185.2681 198.8901 184.8429 C198.8901 184.8429 198.8901 184.8429 193.787 173.8026 L198.8901 184.8429 L193.787 173.8026 M205.706 178.7094 C205.706 177.679 205.8409 176.7672 206.1108 175.9739 L206.1108 175.9739 C206.3807 175.1806 206.7691 174.51 207.2762 173.9621 L207.2762 173.9621 C207.7832 173.4142 208.3925 172.9971 209.104 172.7109 L209.104 172.7109 C209.8154 172.4247 210.6046 172.2815 211.4715 172.2815 L211.4715 172.2815 C212.4855 172.2815 213.3606 172.4369 214.0966 172.7477 L214.0966 172.7477 C214.8326 173.0584 215.4337 173.496 215.8998 174.0602 L215.8998 174.0602 C216.366 174.6245 216.7095 175.2992 216.9303 176.0843 L216.9303 176.0843 C217.1511 176.8694 217.2615 177.7444 217.2615 178.7094 L217.2615 178.7094 C217.2615 180.7703 216.7381 182.3568 215.6913 183.469 L215.6913 183.469 C214.6445 184.5812 213.2379 185.1373 211.4715 185.1373 L211.4715 185.1373 C210.4901 185.1373 209.6396 184.986 208.92 184.6834 L208.92 184.6834 C208.2003 184.3808 207.6033 183.9474 207.129 183.3831 L207.129 183.3831 C206.6547 182.8188 206.2989 182.1401 206.0618 181.3468 L206.0618 181.3468 C205.8246 180.5535 205.706 179.6744 205.706 178.7094 C205.706 178.7094 205.706 178.7094 205.706 178.7094 L205.706 178.7094 L205.706 178.7094 M208.0613 178.7094 C208.0613 179.4454 208.1308 180.1405 208.2698 180.7948 L208.2698 180.7948 C208.4088 181.449 208.6296 182.0174 208.9322 182.4999 L208.9322 182.4999 C209.2348 182.9824 209.6314 183.3627 210.1221 183.6407 L210.1221 183.6407 C210.6128 183.9188 211.2016 184.0578 211.8885 184.0578 L211.8885 184.0578 C212.7718 184.0578 213.4955 183.6244 214.0598 182.7575 L214.0598 182.7575 C214.6241 181.8906 214.9062 180.5413 214.9062 178.7094 L214.9062 178.7094 C214.9062 177.957 214.8367 177.2578 214.6977 176.6118 L214.6977 176.6118 C214.5587 175.9657 214.3419 175.4014 214.0475 174.9189 L214.0475 174.9189 C213.7531 174.4364 213.3769 174.0562 212.919 173.7781 L212.919 173.7781 C212.461 173.5 211.9131 173.361 211.2752 173.361 L211.2752 173.361 C210.3102 173.361 209.5333 173.7945 208.9445 174.6613 L208.9445 174.6613 C208.3557 175.5282 208.0613 176.8775 208.0613 178.7094 C208.0613 178.7094 208.0613 178.7094 208.0613 178.7094 L208.0613 178.7094 L208.0613 178.7094 M224.3327 172.2815 C225.2159 172.2815 225.9601 172.3674 226.5653 172.5391 L226.5653 172.5391 C227.1704 172.7109 227.6775 172.9767 228.0864 173.3365 L228.0864 173.3365 C229.0514 172.6823 230.0573 172.2079 231.104 171.9135 L231.104 171.9135 C231.2349 172.0934 231.3289 172.3143 231.3862 172.5759 L231.3862 172.5759 C231.4434 172.8376 231.472 173.083 231.472 173.312 L231.472 173.312 L231.1531 173.9008 L228.5771 173.9008 C228.9859 174.4896 229.1904 175.2665 229.1904 176.2315 L229.1904 176.2315 C229.1904 177.4091 228.7774 178.3659 227.9514 179.102 L227.9514 179.102 C227.1255 179.838 225.9192 180.206 224.3327 180.206 L224.3327 180.206 C224.0219 180.206 223.7684 180.1978 223.5721 180.1814 L223.5721 180.1814 C223.3759 180.1651 223.1551 180.1405 222.9097 180.1078 L222.9097 180.1078 C222.8279 180.2551 222.7339 180.4186 222.6276 180.5985 L222.6276 180.5985 C222.5213 180.7784 222.4681 180.9665 222.4681 181.1628 L222.4681 181.1628 C222.4681 181.4899 222.6562 181.7475 223.0324 181.9356 L223.0324 181.9356 C223.4086 182.1237 223.8788 182.2914 224.4431 182.4386 L224.4431 182.4386 C225.0074 182.5858 225.6207 182.7371 226.2831 182.8924 L226.2831 182.8924 C226.9455 183.0478 227.563 183.2605 228.1354 183.5303 L228.1354 183.5303 C228.7079 183.8002 229.1863 184.1518 229.5707 184.5853 L229.5707 184.5853 C229.955 185.0187 230.1554 185.5789 230.1718 186.2659 L230.1718 186.2659 C230.1881 186.8547 230.0532 187.3862 229.7669 187.8605 L229.7669 187.8605 C229.4807 188.3349 229.0841 188.7315 228.5771 189.0504 L228.5771 189.0504 C228.07 189.3694 227.4608 189.6147 226.7493 189.7865 L226.7493 189.7865 C226.0378 189.9582 225.2568 190.0441 224.4063 190.0441 L224.4063 190.0441 C222.6235 190.0441 221.2782 189.7415 220.3705 189.1363 L220.3705 189.1363 C219.4627 188.5311 219.0088 187.7706 219.0088 186.8547 L219.0088 186.8547 C219.0088 186.4131 219.0784 186.0287 219.2174 185.7016 L219.2174 185.7016 C219.3564 185.3745 219.5568 185.0882 219.8185 184.8429 L219.8185 184.8429 C220.0802 184.5975 220.4073 184.3808 220.7998 184.1927 L220.7998 184.1927 C221.1924 184.0046 221.6421 183.8288 222.1492 183.6653 L222.1492 183.6653 C221.7893 183.5017 221.4908 183.2768 221.2537 182.9906 L221.2537 182.9906 C221.0165 182.7043 220.8979 182.3568 220.8979 181.9479 L220.8979 181.9479 C220.8979 181.5717 221.0574 181.1996 221.3764 180.8316 L221.3764 180.8316 C221.6953 180.4636 222.0183 180.1733 222.3454 179.9606 L222.3454 179.9606 C221.4132 179.7153 220.6976 179.2492 220.1987 178.5622 L220.1987 178.5622 C219.6999 177.8753 219.4504 177.0984 219.4504 176.2315 L219.4504 176.2315 C219.4504 175.6754 219.5568 175.1561 219.7694 174.6736 L219.7694 174.6736 C219.982 174.1911 220.2928 173.7699 220.7017 173.4101 L220.7017 173.4101 C221.1106 173.0503 221.6176 172.7722 222.2228 172.5759 L222.2228 172.5759 C222.8279 172.3797 223.5313 172.2815 224.3327 172.2815 C224.3327 172.2815 224.3327 172.2815 224.3327 172.2815 L224.3327 172.2815 L224.3327 172.2815 M227.9637 186.8301 C227.9637 186.3067 227.7879 185.8897 227.4362 185.5789 L227.4362 185.5789 C227.0846 185.2681 226.647 185.0146 226.1237 184.8183 L226.1237 184.8183 C225.6003 184.6221 225.036 184.4585 224.4308 184.3277 L224.4308 184.3277 C223.8257 184.1968 223.2614 184.0496 222.738 183.8861 L222.738 183.8861 C222.1165 184.2623 221.7076 184.6589 221.5113 185.076 L221.5113 185.076 C221.315 185.493 221.2169 185.9224 221.2169 186.364 L221.2169 186.364 C221.2169 187.2309 221.5276 187.881 222.1492 188.3144 L222.1492 188.3144 C222.7707 188.7479 223.6703 188.9646 224.8479 188.9646 L224.8479 188.9646 C225.4531 188.9646 225.956 188.9073 226.3567 188.7928 L226.3567 188.7928 C226.7574 188.6783 227.0764 188.5271 227.3136 188.339 L227.3136 188.339 C227.5507 188.1509 227.7184 187.926 227.8165 187.6643 L227.8165 187.6643 C227.9146 187.4026 227.9637 187.1245 227.9637 186.8301 C227.9637 186.8301 227.9637 186.8301 227.9637 186.8301 L227.9637 186.8301 L227.9637 186.8301 M221.6585 176.2315 C221.6585 176.624 221.7035 176.9961 221.7934 177.3478 L221.7934 177.3478 C221.8834 177.6994 222.0306 178.0061 222.235 178.2678 L222.235 178.2678 C222.4395 178.5295 222.7135 178.738 223.0569 178.8934 L223.0569 178.8934 C223.4004 179.0488 223.8257 179.1265 224.3327 179.1265 L224.3327 179.1265 C225.2813 179.1265 225.9601 178.8484 226.369 178.2923 L226.369 178.2923 C226.7779 177.7362 226.9823 177.0493 226.9823 176.2315 L226.9823 176.2315 C226.9823 175.3483 226.782 174.6491 226.3813 174.1339 L226.3813 174.1339 C225.9805 173.6186 225.2977 173.361 224.3327 173.361 L224.3327 173.361 C223.335 173.361 222.6398 173.6105 222.2473 174.1093 L222.2473 174.1093 C221.8548 174.6082 221.6585 175.3156 221.6585 176.2315 C221.6585 176.2315 221.6585 176.2315 221.6585 176.2315 L221.6585 176.2315 L221.6585 176.2315 M241.2336 181.629 C241.2336 181.9888 241.2417 182.2995 241.2581 182.5612 L241.2581 182.5612 C241.2744 182.8229 241.2908 183.101 241.3072 183.3954 L241.3072 183.3954 L243 183.6407 L243 184.1559 C242.5911 184.3686 242.1372 184.5567 241.6384 184.7202 L241.6384 184.7202 C241.1395 184.8838 240.6611 185.0064 240.2031 185.0882 L240.2031 185.0882 L239.5898 185.0882 C239.4262 184.712 239.3281 184.299 239.2954 183.8493 L239.2954 183.8493 C239.2627 183.3995 239.2381 182.9047 239.2218 182.365 L239.2218 182.365 L239.0991 182.365 C239.0337 182.6921 238.9069 183.0233 238.7188 183.3586 L238.7188 183.3586 C238.5307 183.6939 238.2854 183.9924 237.9828 184.2541 L237.9828 184.2541 C237.6802 184.5158 237.3245 184.7284 236.9156 184.892 L236.9156 184.892 C236.5067 185.0555 236.0406 185.1373 235.5172 185.1373 L235.5172 185.1373 C234.5195 185.1373 233.7057 184.8347 233.076 184.2295 L233.076 184.2295 C232.4464 183.6244 232.1315 182.8311 232.1315 181.8497 L232.1315 181.8497 C232.1315 181.0974 232.2828 180.4799 232.5854 179.9974 L232.5854 179.9974 C232.888 179.5149 233.3336 179.1347 233.9225 178.8566 L233.9225 178.8566 C234.5113 178.5786 235.2391 178.3782 236.106 178.2555 L236.106 178.2555 C236.9728 178.1329 237.9787 178.0388 239.1236 177.9734 L239.1236 177.9734 C239.1891 177.2701 239.2095 176.6363 239.185 176.072 L239.185 176.072 C239.1604 175.5077 239.0705 175.0252 238.9151 174.6245 L238.9151 174.6245 C238.7597 174.2238 238.5307 173.913 238.2282 173.6922 L238.2282 173.6922 C237.9256 173.4714 237.5289 173.361 237.0383 173.361 L237.0383 173.361 C236.8093 173.361 236.5517 173.3733 236.2654 173.3978 L236.2654 173.3978 C235.9792 173.4224 235.6971 173.4919 235.419 173.6064 L235.419 173.6064 L234.2659 176.5504 L233.6281 176.5504 C233.4645 176.0598 233.3214 175.5527 233.1987 175.0293 L233.1987 175.0293 C233.076 174.5059 232.9984 173.9907 232.9656 173.4837 L232.9656 173.4837 C233.5872 173.1075 234.2782 172.8131 235.0388 172.6005 L235.0388 172.6005 C235.7993 172.3878 236.6457 172.2815 237.578 172.2815 L237.578 172.2815 C238.4122 172.2815 239.0787 172.4001 239.5775 172.6373 L239.5775 172.6373 C240.0764 172.8744 240.4566 173.1811 240.7184 173.5573 L240.7184 173.5573 C240.98 173.9335 241.1518 174.3506 241.2336 174.8085 L241.2336 174.8085 C241.3153 175.2665 241.3562 175.7245 241.3562 176.1824 L241.3562 176.1824 C241.3562 177.1638 241.3358 178.1083 241.2949 179.0161 L241.2949 179.0161 C241.254 179.9238 241.2336 180.7948 241.2336 181.629 C241.2336 181.629 241.2336 181.629 241.2336 181.629 L241.2336 181.629 L241.2336 181.629 M236.4985 183.6162 C236.9074 183.6162 237.2672 183.5344 237.578 183.3708 L237.578 183.3708 C237.8888 183.2073 238.1505 183.011 238.3631 182.782 L238.3631 182.782 C238.5757 182.5531 238.7475 182.32 238.8783 182.0828 L238.8783 182.0828 C239.0092 181.8457 239.0991 181.6453 239.1482 181.4817 L239.1482 181.4817 L239.1482 178.9057 C238.1995 178.9057 237.4226 178.9548 236.8175 179.0529 L236.8175 179.0529 C236.2123 179.151 235.738 179.3064 235.3945 179.519 L235.3945 179.519 C235.051 179.7317 234.8139 179.9974 234.683 180.3164 L234.683 180.3164 C234.5522 180.6353 234.4867 180.9992 234.4867 181.4081 L234.4867 181.4081 C234.4867 182.1115 234.6667 182.6553 235.0265 183.0396 L235.0265 183.0396 C235.3863 183.424 235.877 183.6162 236.4985 183.6162 C236.4985 183.6162 236.4985 183.6162 236.4985 183.6162 L236.4985 183.6162 L236.4985 183.6162" id="text1_subtext_1" xml:space="default" style="fill:#DCD0C0;" />
    </g>
    <text text-anchor="middle" xml:space="default" x="0 " dx="" y="0 " dy="" font-family="serif" font-size="12" id="text2" style="fill:#ADD8E6;" />
    <g id="icon" xml:space="default" scaleStrokeWidth="true" considerStrokeBounds="true" style="fill:#DCD0C0;">
      <g xml:space="preserve">
        <g xml:space="preserve">
          <path d="M150 157.3308 L148.8796 156.5231 C147.8676 155.7941 124.1006 138.5192 124.1006 124.2708 L124.1006 124.2708 C124.1006 115.6645 129.4973 109.8823 137.53 109.8823 L137.53 109.8823 C141.8187 109.8823 146.2715 112.0702 150 115.9542 L150 115.9542 C153.7285 112.0702 158.1804 109.8823 162.47 109.8823 L162.47 109.8823 C170.5027 109.8823 175.8994 115.6645 175.8994 124.2708 L175.8994 124.2708 C175.8994 138.5192 152.1334 155.7941 151.1213 156.5231 L151.1213 156.5231 L150 157.3308 L150 157.3308 M137.53 113.7192 C130.4575 113.7192 127.9376 119.1696 127.9376 124.2708 L127.9376 124.2708 C127.9376 133.9235 142.9266 147.2425 150 152.5816 L150 152.5816 C157.0724 147.2425 172.0624 133.9235 172.0624 124.2708 L172.0624 124.2708 C172.0624 119.1696 169.5426 113.7192 162.47 113.7192 L162.47 113.7192 C159.1194 113.7192 155.5338 115.6003 152.4681 118.9288 L152.4681 118.9288 C155.0522 122.5346 156.6178 126.57 156.7137 129.9724 L156.7137 129.9724 C156.7741 132.0962 155.9472 134.2516 154.5027 135.7384 L154.5027 135.7384 C153.2729 137.0027 151.6739 137.7001 150 137.7001 L150 137.7001 C148.3261 137.7001 146.728 137.0037 145.4993 135.7393 L145.4993 135.7393 C144.0537 134.2526 143.2269 132.0971 143.2863 129.9724 L143.2863 129.9724 C143.3822 126.57 144.9477 122.5336 147.5319 118.9288 L147.5319 118.9288 C144.4661 115.6003 140.8815 113.7192 137.53 113.7192 L137.53 113.7192 L137.53 113.7192 L137.53 113.7192 M150 122.1221 C148.2561 124.8329 147.1875 127.7346 147.1213 130.0799 L147.1213 130.0799 C147.0906 131.1734 147.5233 132.3169 148.2494 133.0641 L148.2494 133.0641 C149.2815 134.124 150.7213 134.1231 151.7506 133.063 L151.7506 133.063 C152.4777 132.3159 152.9093 131.1724 152.8786 130.0799 L152.8786 130.0799 C152.8125 127.7355 151.7439 124.8329 150 122.1221 L150 122.1221 L150 122.1221 L150 122.1221" xml:space="preserve" />
        </g>
      </g>
    </g>
  </g>
</svg>